<svg width="343" height="316" viewBox="0 0 343 316" fill="none" xmlns="http://www.w3.org/2000/svg">
<path d="M171.766 315.995C266.327 315.995 342.984 311.519 342.984 305.999C342.984 300.478 266.327 296.002 171.766 296.002C77.2056 296.002 0.548828 300.478 0.548828 305.999C0.548828 311.519 77.2056 315.995 171.766 315.995Z" fill="#F5F5F5"/>
<path d="M259.411 82.7508L250.651 79.2185C250.651 79.2185 239.091 100.297 235.78 101.366C231.276 102.814 221.951 106.841 216.423 107.547C215.672 108.43 214.445 111.177 214.56 112.175C221.986 114.656 238.305 111.362 241.802 108.766C249.759 102.876 259.411 82.7508 259.411 82.7508Z" fill="#E58A7B"/>
<path d="M262.104 77.9558C263.738 83.9871 254.889 96.1204 254.889 96.1204L243.295 89.6211C243.295 89.6211 245.467 84.6317 248.116 79.5541C252.364 71.3504 260.241 71.0767 262.104 77.9558Z" fill="#4CAF4F"/>
<path opacity="0.2" d="M262.104 77.9558C263.738 83.9871 254.889 96.1204 254.889 96.1204L243.295 89.6211C243.295 89.6211 245.467 84.6317 248.116 79.5541C252.364 71.3504 260.241 71.0767 262.104 77.9558Z" fill="black"/>
<path opacity="0.2" d="M247.896 92.2173L252.461 94.7782L253.265 80.7639C250.607 82.8038 248.734 88.9499 247.896 92.2173Z" fill="black"/>
<path d="M254.474 73.4168C254.474 73.4168 245.449 93.4977 250.712 130.887H286.274C286.839 125.429 284.967 98.7961 291.74 73.0812C287.839 72.3188 283.892 71.8144 279.924 71.5712C274.892 71.2796 269.847 71.2796 264.815 71.5712C261.327 71.9254 257.87 72.5424 254.474 73.4168Z" fill="#4CAF4F"/>
<path opacity="0.2" d="M254.474 73.4168C254.474 73.4168 245.449 93.4977 250.712 130.887H286.274C286.839 125.429 284.967 98.7961 291.74 73.0812C287.839 72.3188 283.892 71.8144 279.924 71.5712C274.892 71.2796 269.847 71.2796 264.815 71.5712C261.327 71.9254 257.87 72.5424 254.474 73.4168Z" fill="black"/>
<g style="mix-blend-mode:multiply">
<path d="M246.226 306.793C246.173 307.747 259.658 308.515 276.339 308.515C293.02 308.515 306.602 307.747 306.655 306.793C306.708 305.84 293.232 305.08 276.542 305.08C259.852 305.08 246.288 305.849 246.226 306.793Z" fill="#E8ECF1"/>
</g>
<path d="M269.964 281.734L263.657 284.176L269.09 298.211L275.397 295.77L269.964 281.734Z" fill="#E58A7B"/>
<path d="M298.089 300.003H291.439L289.002 284.611H295.652L298.089 300.003Z" fill="#E58A7B"/>
<path d="M290.98 299.234H298.451C298.581 299.235 298.706 299.281 298.804 299.365C298.903 299.449 298.969 299.566 298.99 299.694L299.952 305.601C299.972 305.75 299.961 305.9 299.917 306.044C299.874 306.187 299.801 306.319 299.702 306.431C299.603 306.544 299.481 306.633 299.344 306.694C299.208 306.755 299.06 306.786 298.91 306.785C296.305 306.74 295.051 306.581 291.766 306.581C289.744 306.581 285.585 306.793 282.777 306.793C279.968 306.793 279.783 304.038 280.94 303.782C286.132 302.661 288.146 301.133 289.876 299.649C290.182 299.381 290.574 299.234 290.98 299.234Z" fill="#263238"/>
<path d="M268.904 296.956L275.968 294.89C276.094 294.854 276.229 294.863 276.349 294.914C276.47 294.966 276.569 295.057 276.63 295.172L279.28 300.471C279.341 300.605 279.373 300.751 279.372 300.899C279.371 301.047 279.338 301.193 279.275 301.327C279.212 301.46 279.12 301.579 279.007 301.673C278.893 301.768 278.76 301.837 278.617 301.875C276.048 302.581 274.326 303.014 271.111 303.95C268.895 304.595 266.634 305.645 264.444 306.343C262.925 306.829 259.358 306.846 257.512 306.846C254.783 306.846 254.174 303.968 255.349 303.835C258.307 303.508 258.704 303.659 260.338 302.837C263.011 301.669 265.434 299.996 267.473 297.91C267.858 297.471 268.351 297.142 268.904 296.956Z" fill="#263238"/>
<path d="M217.536 107.512L210.224 104.448L207.213 112.554C210.21 113.011 213.258 113.011 216.255 112.554L217.536 107.512Z" fill="#E58A7B"/>
<path d="M204.784 104.236L204.59 109.622L207.213 112.537L210.224 104.43L204.784 104.236Z" fill="#E58A7B"/>
<path d="M270.829 282.926L264.502 285.369L267.304 292.627L273.631 290.184L270.829 282.926Z" fill="#CF6F64"/>
<path d="M295.652 284.611H289.002L290.265 292.55H296.914L295.652 284.611Z" fill="#CF6F64"/>
<path opacity="0.2" d="M249.582 120.776C249.715 122.374 249.865 124.008 250.059 125.685L276.498 117.102C280.627 115.878 284.215 113.284 286.671 109.746C286.777 107.388 286.909 104.907 287.112 102.32C287.201 101.066 287.307 99.7763 287.422 98.4694C287.536 97.1624 287.695 95.7142 287.863 94.319L249.582 120.776Z" fill="black"/>
<path d="M258.219 91.8111L257.335 91.7051C257.856 87.2898 261.15 83.8105 264.621 83.8988V84.7819C261.583 84.7201 258.687 87.8549 258.219 91.8111Z" fill="white"/>
<path d="M262.925 99.9618H262.775V99.0787C265.813 99.1935 268.665 96.0233 269.133 92.076L270.016 92.182C269.548 96.5001 266.36 99.9618 262.925 99.9618Z" fill="white"/>
<path d="M279.43 54.5545C278.185 59.4202 276.719 68.3303 279.924 71.5712C279.924 71.5712 277.681 76.5075 268.648 76.5075C260.391 76.5075 264.815 71.5712 264.815 71.5712C270.308 70.2819 270.405 66.2728 269.681 62.4756L279.43 54.5545Z" fill="#E58A7B"/>
<path d="M275.456 57.7865L269.69 62.4756C269.868 63.3482 269.972 64.2345 269.999 65.1248C271.685 66.8026 275.067 62.5551 275.412 60.3827C275.587 59.5275 275.602 58.6472 275.456 57.7865Z" fill="#CF6F64"/>
<path d="M259.773 54.4927C260.174 55.1881 260.714 55.7933 261.36 56.2704C262.006 56.7475 262.743 57.0863 263.526 57.2655C265.645 57.7335 266.705 55.782 266.122 53.8216C265.601 52.0554 263.861 49.68 261.707 50.0862C261.245 50.1813 260.813 50.3855 260.447 50.6819C260.08 50.9783 259.79 51.3582 259.601 51.7897C259.412 52.2212 259.328 52.6918 259.358 53.1621C259.388 53.6323 259.53 54.0886 259.773 54.4927Z" fill="#CF6F64"/>
<path d="M263.279 38.9242C259.976 40.4343 258.81 53.5566 262.961 55.4994C267.111 57.4421 269.531 36.0543 263.279 38.9242Z" fill="#263238"/>
<path d="M280.436 47.2339C279.642 53.8216 279.553 57.6982 276.021 61.0715C274.927 62.191 273.544 62.9861 272.026 63.3693C270.508 63.7524 268.914 63.7085 267.419 63.2426C265.924 62.7766 264.587 61.9067 263.556 60.7289C262.525 59.551 261.839 58.111 261.574 56.5679C260.506 50.6514 261.98 40.8758 268.586 38.2531C269.974 37.641 271.5 37.4112 273.006 37.5875C274.513 37.7639 275.945 38.34 277.154 39.2562C278.363 40.1723 279.305 41.3952 279.882 42.7979C280.459 44.2006 280.651 45.7322 280.436 47.2339Z" fill="#E58A7B"/>
<path d="M269.584 42.3329C274.476 41.0878 278.07 40.24 276.781 44.3109C275.076 49.7506 273.028 55.0137 275.774 55.2521C277.452 55.4022 284.869 52.2585 283.925 49.0707C283.103 46.2978 286.574 45.5384 287.192 44.1343C289.479 39.0479 282.936 39.719 284.101 36.6283C285.267 33.5375 278.803 28.5571 275.271 31.0385C269.522 35.0476 259.658 34.9858 264.842 28.3893C268.559 23.6825 261.927 24.6451 261.927 24.6451C261.927 24.6451 265.937 27.0205 259.19 30.6941C252.055 34.6149 258.598 45.1499 269.584 42.3329Z" fill="#263238"/>
<path d="M283.033 54.4927C282.067 55.8902 280.616 56.8785 278.962 57.2655C276.781 57.7335 275.942 55.782 276.763 53.8216C277.496 52.0554 279.509 49.68 281.593 50.0862C283.677 50.4924 284.154 52.7619 283.033 54.4927Z" fill="#E58A7B"/>
<path d="M250.712 130.887C250.712 130.887 244.743 184.312 244.275 204.587C243.798 225.675 264.506 291.472 264.506 291.472L275.103 287.057C275.103 287.057 262.74 226.938 264.506 206.23C266.378 183.65 274.114 130.922 274.114 130.922L250.712 130.887Z" fill="#4CAF4F"/>
<path opacity="0.2" d="M265.548 145.554C260.788 155.427 263.994 174.952 266.572 186.52C267.553 178.351 268.718 169.485 269.822 161.282C269.716 148.672 268.736 138.931 265.548 145.554Z" fill="black"/>
<path d="M274.635 283.56C274.688 283.56 275.889 286.933 275.889 286.933L263.667 292.073L261.742 288.487L274.635 283.56Z" fill="#4CAF4F"/>
<path d="M263.331 130.887C263.331 130.887 267.897 181.698 270.917 200.728C274.237 221.578 287.254 291.013 287.254 291.013H299.431C299.431 291.013 292.137 223.264 290.76 202.618C289.258 180.224 286.274 130.887 286.274 130.887H263.331Z" fill="#4CAF4F"/>
<path d="M299.617 287.843C299.67 287.843 300.023 291.243 300.023 291.243H286.636L285.682 287.339L299.617 287.843Z" fill="#4CAF4F"/>
<path opacity="0.2" d="M294.954 283.816C294.926 283.816 294.9 283.807 294.879 283.789C294.857 283.771 294.844 283.746 294.839 283.719C294.769 283.101 288.19 221.904 286.954 203.36C285.611 183.244 282.909 138.622 282.883 138.172C282.881 138.157 282.883 138.143 282.888 138.129C282.893 138.115 282.9 138.102 282.91 138.091C282.92 138.08 282.932 138.072 282.946 138.066C282.959 138.06 282.974 138.057 282.989 138.057C283.018 138.057 283.045 138.068 283.067 138.088C283.088 138.107 283.101 138.134 283.103 138.163C283.103 138.614 285.832 183.2 287.174 203.351C288.411 221.895 294.989 283.048 295.051 283.71C295.054 283.725 295.053 283.74 295.05 283.754C295.046 283.768 295.039 283.782 295.03 283.793C295.021 283.805 295.009 283.815 294.996 283.822C294.983 283.829 294.969 283.833 294.954 283.834V283.816Z" fill="black"/>
<path d="M270.334 49.0707C270.334 49.6093 269.999 50.042 269.645 50.042C269.292 50.042 269.036 49.6093 269.071 49.0707C269.107 48.532 269.407 48.0993 269.76 48.0993C270.113 48.0993 270.37 48.5408 270.334 49.0707Z" fill="#263238"/>
<path d="M264.276 49.0707C264.276 49.6093 263.932 50.042 263.588 50.042C263.243 50.042 262.978 49.6093 263.005 49.0707C263.031 48.532 263.349 48.0993 263.702 48.0993C264.056 48.0993 264.312 48.5408 264.276 49.0707Z" fill="#263238"/>
<path d="M266.184 49.3444C265.447 50.9893 264.497 52.5302 263.358 53.9275C264.241 54.8106 265.892 54.4044 265.892 54.4044L266.184 49.3444Z" fill="#DF5753"/>
<path d="M266.343 56.6562C266.322 56.6562 266.302 56.6521 266.283 56.644C266.264 56.6359 266.247 56.624 266.233 56.6092C266.219 56.5943 266.208 56.5767 266.201 56.5574C266.194 56.5382 266.191 56.5177 266.193 56.4973C266.195 56.4543 266.214 56.4139 266.245 56.3843C266.276 56.3547 266.317 56.3382 266.36 56.3383C267.036 56.343 267.704 56.1963 268.315 55.909C268.926 55.6217 269.465 55.2011 269.893 54.6781C269.923 54.6514 269.962 54.6367 270.003 54.6367C270.044 54.6367 270.083 54.6514 270.113 54.6781C270.142 54.7078 270.158 54.7473 270.158 54.7885C270.158 54.8297 270.142 54.8693 270.113 54.8989C269.656 55.4547 269.08 55.9011 268.427 56.2052C267.775 56.5092 267.063 56.6634 266.343 56.6562Z" fill="#263238"/>
<path d="M271.412 47.4458C271.369 47.4675 271.322 47.4788 271.275 47.4788C271.227 47.4788 271.18 47.4675 271.138 47.4458C270.807 47.2322 270.432 47.0994 270.04 47.058C269.649 47.0165 269.254 47.0677 268.886 47.2074C268.85 47.2253 268.811 47.2359 268.771 47.2384C268.731 47.241 268.691 47.2356 268.653 47.2224C268.615 47.2092 268.58 47.1886 268.551 47.1618C268.521 47.1349 268.497 47.1024 268.48 47.0661C268.447 46.9875 268.446 46.8992 268.478 46.82C268.509 46.7409 268.57 46.6771 268.648 46.6422C269.109 46.4536 269.61 46.3793 270.106 46.4254C270.603 46.4715 271.081 46.6368 271.5 46.9071C271.534 46.9301 271.563 46.9596 271.585 46.9939C271.607 47.0282 271.623 47.0666 271.63 47.1069C271.637 47.1471 271.637 47.1884 271.628 47.2284C271.619 47.2684 271.603 47.3063 271.579 47.3398C271.535 47.3905 271.476 47.4272 271.412 47.4458Z" fill="#263238"/>
<path d="M261.936 45.6797C261.889 45.6683 261.846 45.6438 261.813 45.6091C261.783 45.5803 261.76 45.5459 261.744 45.508C261.728 45.4701 261.72 45.4294 261.72 45.3883C261.72 45.3472 261.728 45.3065 261.744 45.2686C261.76 45.2306 261.783 45.1963 261.813 45.1675C262.151 44.7879 262.573 44.4916 263.044 44.3017C263.516 44.1117 264.025 44.0333 264.532 44.0725C264.573 44.0788 264.612 44.0933 264.647 44.1152C264.682 44.1372 264.711 44.166 264.735 44.1999C264.758 44.2339 264.774 44.2722 264.782 44.3126C264.789 44.3529 264.789 44.3945 264.78 44.4346C264.761 44.5163 264.713 44.5884 264.644 44.6372C264.576 44.6859 264.492 44.7081 264.409 44.6995C264.008 44.6742 263.606 44.7406 263.234 44.8936C262.862 45.0466 262.53 45.2822 262.263 45.5826C262.223 45.6273 262.171 45.66 262.113 45.6771C262.056 45.6943 261.994 45.6951 261.936 45.6797Z" fill="#263238"/>
<path d="M295.157 81.7706L285.973 79.3245C285.973 79.3245 276.966 101.498 273.778 102.938C269.451 104.916 258.492 111.768 253.83 115.009C253.574 116.113 253.777 119.036 254.36 119.84C262.307 118.391 277.522 112.537 280.701 109.561C287.951 102.77 295.157 81.7706 295.157 81.7706Z" fill="#E58A7B"/>
<path d="M288.746 300.4C288.298 300.435 287.851 300.314 287.483 300.056C287.37 299.953 287.285 299.822 287.237 299.677C287.189 299.531 287.179 299.376 287.21 299.225C287.215 299.132 287.246 299.041 287.299 298.963C287.352 298.886 287.425 298.824 287.51 298.784C288.252 298.404 290.327 299.72 290.565 299.87C290.591 299.886 290.612 299.911 290.623 299.939C290.634 299.968 290.635 299.999 290.627 300.029C290.62 300.06 290.604 300.088 290.583 300.111C290.561 300.135 290.534 300.152 290.503 300.162C289.928 300.303 289.339 300.383 288.746 300.4ZM287.863 299.022C287.796 299.008 287.727 299.008 287.66 299.022C287.626 299.04 287.598 299.066 287.579 299.099C287.56 299.132 287.552 299.17 287.554 299.208C287.53 299.311 287.534 299.418 287.565 299.518C287.596 299.619 287.653 299.71 287.731 299.782C288.075 300.091 288.94 300.126 290.08 299.905C289.401 299.459 288.637 299.158 287.837 299.022H287.863Z" fill="#4CAF4F"/>
<path d="M290.459 300.162C290.436 300.169 290.412 300.169 290.389 300.162C289.726 299.791 288.481 298.334 288.667 297.592C288.694 297.474 288.761 297.369 288.855 297.294C288.95 297.219 289.067 297.178 289.188 297.177C289.306 297.161 289.427 297.171 289.541 297.206C289.655 297.241 289.761 297.3 289.85 297.38C290.583 298.007 290.627 299.932 290.627 300.029C290.631 300.058 290.626 300.088 290.611 300.113C290.597 300.139 290.575 300.159 290.548 300.17C290.518 300.176 290.487 300.173 290.459 300.162ZM289.276 297.468H289.214C289.011 297.468 288.985 297.583 288.976 297.627C288.87 298.06 289.656 299.164 290.309 299.685C290.306 298.939 290.075 298.212 289.647 297.601C289.544 297.511 289.412 297.464 289.276 297.468Z" fill="#4CAF4F"/>
<path d="M265.301 299.296C264.76 299.485 264.172 299.485 263.632 299.296C263.509 299.23 263.405 299.133 263.329 299.016C263.254 298.899 263.209 298.764 263.199 298.625C263.188 298.538 263.199 298.449 263.231 298.367C263.264 298.285 263.317 298.213 263.384 298.157C264.091 297.521 266.979 298.157 267.305 298.281C267.336 298.289 267.364 298.307 267.383 298.333C267.402 298.358 267.412 298.39 267.411 298.422C267.413 298.455 267.404 298.488 267.387 298.516C267.369 298.544 267.344 298.567 267.314 298.581C266.664 298.874 265.99 299.114 265.301 299.296ZM263.861 298.245C263.76 298.266 263.666 298.311 263.588 298.378C263.559 298.399 263.538 298.427 263.525 298.46C263.513 298.493 263.51 298.529 263.517 298.563C263.523 298.656 263.552 298.746 263.601 298.824C263.65 298.903 263.719 298.968 263.799 299.014C264.268 299.261 265.354 299.067 266.758 298.475C265.812 298.236 264.833 298.159 263.861 298.245Z" fill="#4CAF4F"/>
<path d="M267.288 298.581H267.217C266.334 298.422 264.568 297.406 264.515 296.647C264.515 296.47 264.594 296.223 265.018 296.082C265.161 296.031 265.313 296.009 265.465 296.018C265.617 296.027 265.765 296.067 265.901 296.135C266.855 296.603 267.358 298.298 267.385 298.378C267.391 298.404 267.39 298.432 267.382 298.459C267.375 298.485 267.36 298.509 267.341 298.528C267.327 298.55 267.309 298.568 267.288 298.581ZM265.195 296.347H265.106C264.833 296.444 264.833 296.559 264.833 296.594C264.833 297.053 266.113 297.892 267.005 298.175C266.8 297.465 266.365 296.844 265.769 296.409C265.591 296.318 265.387 296.296 265.195 296.347Z" fill="#4CAF4F"/>
<path d="M254.58 114.488L245.37 118.727L244.301 121.376L247.701 123.663C247.701 123.663 254.059 122.974 255.87 118.886L254.58 114.488Z" fill="#E58A7B"/>
<path d="M254.969 119.99C254.763 118.22 254.179 116.515 253.256 114.992L254.713 113.897C255.809 115.652 256.508 117.626 256.762 119.681L254.969 119.99Z" fill="#263238"/>
<path d="M256.541 115.742C256.735 116.048 256.831 116.407 256.815 116.77C256.798 117.132 256.67 117.481 256.449 117.768C256.227 118.056 255.922 118.268 255.576 118.376C255.23 118.484 254.858 118.483 254.513 118.372C254.167 118.262 253.864 118.047 253.644 117.758C253.425 117.469 253.299 117.12 253.285 116.757C253.272 116.394 253.37 116.036 253.567 115.731C253.764 115.427 254.05 115.19 254.386 115.053C254.763 114.861 255.202 114.826 255.605 114.954C256.009 115.083 256.345 115.367 256.541 115.742Z" fill="#263238"/>
<path d="M239.144 122.153L240.372 123.389L248.637 119.857L245.37 118.727L239.144 122.153Z" fill="#E58A7B"/>
<path opacity="0.2" d="M274.635 283.56C274.688 283.56 275.889 286.933 275.889 286.933L263.667 292.073L261.742 288.487L274.635 283.56Z" fill="black"/>
<path opacity="0.2" d="M299.617 287.843C299.67 287.843 300.023 291.243 300.023 291.243H286.636L285.682 287.339L299.617 287.843Z" fill="black"/>
<path d="M297.55 79.2274C299.979 87.0602 290.486 97.7717 290.486 97.7717L277.372 92.4204C278.927 87.8931 280.719 83.451 282.741 79.1126C286.768 70.432 295.095 71.3239 297.55 79.2274Z" fill="#4CAF4F"/>
<path opacity="0.2" d="M297.55 79.2274C299.979 87.0602 290.486 97.7717 290.486 97.7717L277.372 92.4204C278.927 87.8931 280.719 83.451 282.741 79.1126C286.768 70.432 295.095 71.3239 297.55 79.2274Z" fill="black"/>
<path d="M167.245 0.749329H161.602V1.65889H167.245V0.749329Z" fill="#4CAF4F"/>
<path d="M240.291 36.7489L239.608 51.9045L240.516 51.9455L241.199 36.7898L240.291 36.7489Z" fill="#4CAF4F"/>
<path d="M238.535 4.8291H134.333L124.637 221.816H228.839L238.535 4.8291Z" fill="#4CAF4F"/>
<path opacity="0.56" d="M235.427 7.81384H131.225L121.529 224.801H225.731L235.427 7.81384Z" fill="#FAFAFA"/>
<path opacity="0.07" d="M232.318 10.7898H128.117L118.412 227.777H222.613L232.318 10.7898Z" fill="#4CAF4F"/>
<path d="M220.459 105.428H131.516L130.775 122.03H219.717L220.459 105.428Z" fill="white"/>
<path d="M180.429 93.3123H132.055L131.728 100.739H180.103L180.429 93.3123Z" fill="#4CAF4F"/>
<path d="M218.454 150.235H129.512L128.77 166.836H217.712L218.454 150.235Z" fill="white"/>
<path opacity="0.47" d="M202.144 189.257H142.334L141.442 209.153H201.252L202.144 189.257Z" fill="#4CAF4F"/>
<path d="M198.144 212.244H138.334C138.308 212.25 138.28 212.25 138.254 212.244C138.245 212.218 138.245 212.19 138.254 212.164L139.137 192.26C139.137 192.246 139.14 192.233 139.145 192.22C139.151 192.208 139.159 192.197 139.169 192.188C139.179 192.179 139.19 192.172 139.203 192.167C139.216 192.163 139.23 192.161 139.243 192.163H199.053C199.064 192.157 199.076 192.154 199.089 192.154C199.101 192.154 199.113 192.157 199.124 192.163C199.13 192.173 199.133 192.186 199.133 192.198C199.133 192.21 199.13 192.223 199.124 192.233L198.258 212.182C198.248 212.202 198.231 212.219 198.211 212.231C198.19 212.242 198.167 212.246 198.144 212.244ZM138.44 212.032H198.038L198.921 192.339H139.323L138.44 212.032Z" fill="white"/>
<path d="M169.983 138.119H130.05L129.724 145.554H169.647L169.983 138.119Z" fill="#4CAF4F"/>
<path d="M201.005 51.7993C200.776 56.6309 199.058 61.2734 196.086 65.0895C193.886 67.9719 191.054 70.312 187.809 71.93C184.564 73.548 180.991 74.401 177.365 74.4235C174.435 74.4458 171.531 73.868 168.832 72.7256C166.134 71.5832 163.698 69.9004 161.674 67.7809C159.651 65.6614 158.083 63.15 157.066 60.4015C156.05 57.6529 155.607 54.7255 155.765 51.7993C156.076 45.7274 158.694 40.0034 163.085 35.798C167.476 31.5927 173.308 29.2235 179.387 29.1752C182.32 29.1478 185.227 29.7221 187.929 30.8626C190.63 32.003 193.07 33.6853 195.096 35.8057C197.122 37.926 198.691 40.4392 199.708 43.1901C200.724 45.941 201.165 48.8711 201.005 51.7993Z" fill="white"/>
<path d="M203.133 33.9085C203.075 35.1932 202.618 36.4279 201.826 37.4407C201.24 38.2063 200.486 38.8278 199.623 39.2579C198.76 39.6879 197.81 39.9151 196.846 39.9221C195.911 39.9278 194.99 39.7046 194.162 39.2721C193.333 38.8395 192.624 38.2108 192.095 37.4407C191.394 36.4002 191.047 35.1616 191.106 33.9085C191.191 32.2963 191.888 30.7775 193.055 29.6617C194.221 28.5459 195.77 27.9171 197.384 27.9036C198.163 27.8965 198.935 28.0489 199.653 28.3515C200.37 28.6541 201.018 29.1005 201.557 29.663C202.096 30.2256 202.513 30.8925 202.784 31.6227C203.055 32.3528 203.174 33.1307 203.133 33.9085Z" fill="#4CAF4F"/>
<path d="M141.098 113.729C141.055 114.44 140.745 115.109 140.228 115.601C139.712 116.093 139.029 116.37 138.316 116.378C137.972 116.382 137.63 116.316 137.313 116.182C136.995 116.049 136.709 115.853 136.47 115.604C136.232 115.356 136.047 115.061 135.927 114.739C135.807 114.416 135.755 114.072 135.773 113.729C135.811 113.016 136.12 112.344 136.637 111.852C137.154 111.359 137.84 111.083 138.554 111.08C138.898 111.077 139.239 111.144 139.556 111.278C139.873 111.411 140.159 111.608 140.397 111.856C140.635 112.104 140.82 112.398 140.94 112.72C141.061 113.042 141.114 113.385 141.098 113.729Z" fill="#263238"/>
<path d="M153.001 113.729C152.961 114.441 152.651 115.111 152.134 115.603C151.618 116.095 150.933 116.372 150.22 116.378C149.876 116.381 149.536 116.313 149.219 116.18C148.903 116.046 148.617 115.849 148.38 115.601C148.143 115.353 147.958 115.059 147.839 114.737C147.719 114.415 147.667 114.072 147.685 113.729C147.723 113.017 148.032 112.347 148.547 111.855C149.062 111.362 149.746 111.085 150.458 111.08C150.802 111.075 151.144 111.142 151.461 111.275C151.778 111.408 152.065 111.605 152.304 111.853C152.542 112.101 152.727 112.396 152.847 112.719C152.967 113.041 153.019 113.385 153.001 113.729Z" fill="#263238"/>
<path d="M164.914 113.729C164.873 114.441 164.563 115.111 164.047 115.603C163.53 116.095 162.846 116.372 162.132 116.378C161.788 116.381 161.448 116.313 161.131 116.18C160.814 116.046 160.528 115.85 160.29 115.601C160.051 115.353 159.867 115.059 159.746 114.737C159.626 114.415 159.572 114.072 159.589 113.729C159.629 113.016 159.939 112.346 160.456 111.854C160.973 111.362 161.657 111.085 162.371 111.08C162.715 111.075 163.056 111.142 163.374 111.275C163.691 111.408 163.978 111.605 164.216 111.853C164.455 112.101 164.639 112.396 164.759 112.719C164.879 113.041 164.932 113.385 164.914 113.729Z" fill="#263238"/>
<path d="M139.093 158.536C139.051 159.247 138.74 159.916 138.224 160.408C137.708 160.899 137.024 161.177 136.311 161.185C135.968 161.188 135.627 161.12 135.31 160.987C134.993 160.853 134.707 160.656 134.469 160.408C134.231 160.16 134.046 159.866 133.925 159.544C133.805 159.222 133.751 158.879 133.768 158.536C133.808 157.823 134.118 157.153 134.635 156.661C135.152 156.169 135.836 155.892 136.55 155.886C136.894 155.883 137.234 155.951 137.551 156.084C137.868 156.218 138.154 156.415 138.392 156.663C138.63 156.911 138.815 157.205 138.936 157.527C139.056 157.849 139.11 158.192 139.093 158.536Z" fill="#263238"/>
<path d="M150.997 158.536C150.956 159.246 150.648 159.915 150.133 160.407C149.618 160.899 148.936 161.177 148.224 161.185C147.88 161.189 147.538 161.122 147.221 160.989C146.904 160.856 146.617 160.659 146.378 160.411C146.14 160.163 145.955 159.868 145.835 159.546C145.715 159.223 145.663 158.879 145.681 158.536C145.721 157.823 146.031 157.153 146.548 156.661C147.064 156.169 147.749 155.892 148.462 155.886C148.806 155.883 149.146 155.951 149.463 156.084C149.779 156.218 150.065 156.415 150.302 156.663C150.539 156.911 150.724 157.206 150.843 157.528C150.963 157.85 151.015 158.193 150.997 158.536Z" fill="#263238"/>
<path d="M162.936 158.536C162.895 159.248 162.585 159.918 162.069 160.41C161.552 160.902 160.868 161.179 160.154 161.185C159.811 161.186 159.47 161.118 159.154 160.984C158.838 160.85 158.552 160.653 158.314 160.406C158.077 160.158 157.892 159.864 157.771 159.543C157.65 159.221 157.595 158.879 157.611 158.536C157.653 157.824 157.964 157.155 158.48 156.663C158.996 156.172 159.68 155.894 160.393 155.886C160.737 155.882 161.078 155.949 161.395 156.082C161.713 156.215 162 156.412 162.238 156.66C162.476 156.908 162.661 157.203 162.781 157.525C162.901 157.848 162.954 158.192 162.936 158.536Z" fill="#263238"/>
<path d="M174.822 158.536C174.779 159.247 174.469 159.916 173.953 160.408C173.436 160.899 172.753 161.177 172.04 161.185C171.697 161.186 171.357 161.118 171.04 160.984C170.724 160.85 170.438 160.653 170.201 160.405C169.963 160.158 169.778 159.864 169.657 159.543C169.536 159.221 169.481 158.879 169.497 158.536C169.539 157.824 169.85 157.155 170.366 156.663C170.882 156.172 171.566 155.894 172.279 155.886C172.622 155.883 172.963 155.951 173.28 156.084C173.597 156.218 173.883 156.415 174.121 156.663C174.359 156.911 174.544 157.205 174.665 157.527C174.785 157.849 174.839 158.192 174.822 158.536Z" fill="#263238"/>
<path d="M186.779 158.536C186.736 159.247 186.426 159.916 185.909 160.408C185.393 160.899 184.71 161.177 183.997 161.185C183.653 161.189 183.311 161.122 182.994 160.989C182.677 160.856 182.39 160.659 182.151 160.411C181.913 160.163 181.728 159.868 181.608 159.546C181.488 159.223 181.436 158.879 181.454 158.536C181.494 157.823 181.804 157.153 182.321 156.661C182.837 156.169 183.522 155.892 184.235 155.886C184.579 155.883 184.92 155.951 185.237 156.084C185.554 156.218 185.84 156.415 186.078 156.663C186.316 156.911 186.501 157.205 186.621 157.527C186.742 157.849 186.795 158.192 186.779 158.536Z" fill="#263238"/>
<path d="M184.971 50.621C188.667 47.0066 188.864 41.2131 185.409 37.6809C181.955 34.1486 176.159 34.2153 172.463 37.8297C168.766 41.4442 168.57 47.2377 172.025 50.7699C175.479 54.3021 181.275 54.2355 184.971 50.621Z" fill="#4CAF4F"/>
<path d="M196.086 65.0895C193.886 67.9719 191.054 70.312 187.809 71.93C184.564 73.548 180.991 74.401 177.365 74.4235C173.849 74.4533 170.379 73.6175 167.262 71.9897C164.145 70.3619 161.477 67.9922 159.492 65.0895C163.784 60.8155 170.574 58.025 178.098 58.025C185.622 58.025 192.174 60.8155 196.086 65.0895Z" fill="#4CAF4F"/>
<path opacity="0.1" d="M184.971 50.621C188.667 47.0066 188.864 41.2131 185.409 37.6809C181.955 34.1486 176.159 34.2153 172.463 37.8297C168.766 41.4442 168.57 47.2377 172.025 50.7699C175.479 54.3021 181.275 54.2355 184.971 50.621Z" fill="white"/>
<path opacity="0.1" d="M196.086 65.0895C193.886 67.9719 191.054 70.312 187.809 71.93C184.564 73.548 180.991 74.401 177.365 74.4235C173.849 74.4533 170.379 73.6175 167.262 71.9897C164.145 70.3619 161.477 67.9922 159.492 65.0895C163.784 60.8155 170.574 58.025 178.098 58.025C185.622 58.025 192.174 60.8155 196.086 65.0895Z" fill="white"/>
<path d="M66.1606 126.03C65.3217 127.867 64.4386 129.889 63.6704 131.849C62.9021 133.81 62.1162 135.832 61.4362 137.845C60.0479 141.813 58.9905 145.889 58.2748 150.032L58.0806 151.33C58.062 151.552 58.083 151.777 58.1424 151.992C58.3508 152.724 58.679 153.416 59.1137 154.041C60.2478 155.657 61.5633 157.139 63.0346 158.456C64.5857 159.899 66.2129 161.258 67.9091 162.527C69.6046 163.834 71.3884 165.106 73.1457 166.306L71.4943 169.406C67.2982 167.578 63.3153 165.295 59.6171 162.598C57.6441 161.159 55.8635 159.473 54.3187 157.582C53.403 156.456 52.689 155.18 52.2082 153.811C51.9286 152.956 51.7856 152.062 51.7843 151.162C51.7843 150.95 51.7843 150.641 51.7843 150.491V150.058L51.8726 149.175C52.3789 144.574 53.3463 140.036 54.7602 135.629C55.449 133.456 56.182 131.293 57.0209 129.182C57.8598 127.072 58.7252 125.006 59.7937 122.86L66.1606 126.03Z" fill="#E58A7B"/>
<path d="M71.9006 165.759L78.1438 162.598L76.5278 169.45C76.5278 169.45 72.245 170.651 70.2581 168.567L71.9006 165.759Z" fill="#E58A7B"/>
<path d="M83.8572 163.719L82.1971 169.388L76.5278 169.45L78.1438 162.598L83.8572 163.719Z" fill="#E58A7B"/>
<path d="M92.6702 92.9679C93.0042 94.1917 93.469 95.3759 94.0567 96.5002C93.885 96.6949 93.6638 96.8395 93.4167 96.9188C93.1695 96.9981 92.9055 97.009 92.6526 96.9505L92.6702 92.9679Z" fill="#DF5753"/>
<path d="M92.4848 93.0209C92.8506 93.0209 93.1471 92.5662 93.1471 92.0053C93.1471 91.4445 92.8506 90.9898 92.4848 90.9898C92.119 90.9898 91.8225 91.4445 91.8225 92.0053C91.8225 92.5662 92.119 93.0209 92.4848 93.0209Z" fill="#263238"/>
<path d="M92.2905 91.0251L93.6328 90.6454C93.6328 90.6454 92.9793 91.6874 92.2905 91.0251Z" fill="#263238"/>
<path d="M75.4239 99.4496C76.2275 103.556 77.0311 111.088 74.1523 113.835C74.1523 113.835 75.2827 118.003 82.9212 118.003C91.3191 118.003 86.9303 113.835 86.9303 113.835C82.3472 112.74 82.462 109.34 83.2656 106.143L75.4239 99.4496Z" fill="#E58A7B"/>
<path d="M73.1898 90.0891C73.6137 96.9505 73.649 99.8646 77.1106 103.388C82.3296 108.686 90.6657 106.673 92.2994 99.8558C93.7741 93.6744 92.838 83.5014 86.1179 80.7728C84.6428 80.1651 83.0371 79.9438 81.4526 80.1297C79.8681 80.3157 78.3572 80.9028 77.0629 81.8355C75.7686 82.7682 74.7336 84.0157 74.0559 85.46C73.3782 86.9042 73.0801 88.4975 73.1898 90.0891Z" fill="#E58A7B"/>
<path d="M73.8698 82.3711C70.4258 83.625 65.8339 82.689 67.6353 93.3123C69.5427 104.563 66.611 108.263 66.611 108.263C66.611 108.263 79.6715 111.044 93.0058 108.095C93.0058 108.095 88.9349 100.977 90.074 95.7319C91.5311 89.1089 90.3831 86.6628 90.3831 86.6628C90.3831 86.6628 78.709 80.605 73.8698 82.3711Z" fill="#263238"/>
<path d="M88.4404 93.6655C88.444 94.9702 88.8175 96.247 89.5177 97.3479C90.4538 98.7785 91.5576 98.231 91.8313 96.7121C92.0786 95.3787 91.8932 93.0209 90.701 92.1025C89.5089 91.1841 88.458 92.0848 88.4404 93.6655Z" fill="#E58A7B"/>
<path d="M70.8762 83.5279C69.8872 80.7462 74.6027 76.4634 84.5814 78.2295C94.56 79.9956 94.9927 88.3053 94.9927 88.3053L92.9793 85.9033L93.0677 88.4289L82.8153 90.3981L70.8762 83.5279Z" fill="#263238"/>
<path d="M71.7239 114.303C71.665 113.9 71.7659 113.489 72.0051 113.159C72.2443 112.829 72.6028 112.606 73.0044 112.537C76.1128 112.024 83.1773 110.982 86.7272 111.477C89.3764 111.848 90.0652 113.384 90.18 114.647C90.198 114.868 90.1684 115.091 90.0933 115.299C90.0182 115.508 89.8992 115.698 89.7445 115.857C89.5897 116.016 89.4027 116.14 89.196 116.221C88.9894 116.302 88.7678 116.337 88.5463 116.325L73.1987 115.636C72.8368 115.618 72.4924 115.475 72.2237 115.232C71.955 114.989 71.7784 114.661 71.7239 114.303Z" fill="#4CAF4F"/>
<path opacity="0.6" d="M71.7239 114.303C71.665 113.9 71.7659 113.489 72.0051 113.159C72.2443 112.829 72.6028 112.606 73.0044 112.537C76.1128 112.024 83.1773 110.982 86.7272 111.477C89.3764 111.848 90.0652 113.384 90.18 114.647C90.198 114.868 90.1684 115.091 90.0933 115.299C90.0182 115.508 89.8992 115.698 89.7445 115.857C89.5897 116.016 89.4027 116.14 89.196 116.221C88.9894 116.302 88.7678 116.337 88.5463 116.325L73.1987 115.636C72.8368 115.618 72.4924 115.475 72.2237 115.232C71.955 114.989 71.7784 114.661 71.7239 114.303Z" fill="black"/>
<path d="M80.5988 268.574L86.2945 272.53L95.8228 259.611L90.127 255.664L80.5988 268.574Z" fill="#E58A7B"/>
<path d="M67.3174 268.318L73.3311 271.745L81.7644 258.084L75.7507 254.657L67.3174 268.318Z" fill="#E58A7B"/>
<path d="M95.8139 259.611L90.9041 266.27L85.2083 262.322L90.1182 255.664L95.8139 259.611Z" fill="#CF6F64"/>
<path d="M75.7419 254.657L81.7644 258.092L77.4197 265.13L71.3972 261.695L75.7419 254.657Z" fill="#CF6F64"/>
<path d="M85.4026 157.432C85.4026 157.432 107.638 185.451 103.461 212.252C100.097 233.896 80.5811 263.205 80.5811 263.205L71.406 258.649C77.8731 245.69 83.3921 232.279 87.9194 218.522C89.3155 214.251 89.7229 209.719 89.111 205.267C88.4991 200.815 86.8838 196.561 84.3871 192.825C73.1192 176.373 55.0693 186.167 67.2115 157.432H85.4026Z" fill="#4CAF4F"/>
<path opacity="0.6" d="M85.4026 157.432C85.4026 157.432 107.638 185.451 103.461 212.252C100.097 233.896 80.5811 263.205 80.5811 263.205L71.406 258.649C77.8731 245.69 83.3921 232.279 87.9194 218.522C89.3155 214.251 89.7229 209.719 89.111 205.267C88.4991 200.815 86.8838 196.561 84.3871 192.825C73.1192 176.373 55.0693 186.167 67.2115 157.432H85.4026Z" fill="black"/>
<path opacity="0.4" d="M96.3085 175.429L93.0765 172.214C93.0765 172.47 99.3374 211.122 101.095 221.984C102.132 218.811 102.926 215.564 103.47 212.27C105.537 199.121 101.218 185.69 96.3085 175.429Z" fill="black"/>
<path d="M95.3283 157.432C95.3283 157.432 122.103 192.648 122.862 213.762C123.489 231.424 93.7211 265.643 93.7211 265.643L85.067 260.044C85.067 260.044 102.49 235.742 106.879 215.891C105.183 196.216 69.3308 157.432 69.3308 157.432H95.3283Z" fill="#4CAF4F"/>
<path opacity="0.6" d="M95.3283 157.432C95.3283 157.432 122.103 192.648 122.862 213.762C123.489 231.424 93.7211 265.643 93.7211 265.643L85.067 260.044C85.067 260.044 102.49 235.742 106.879 215.891C105.183 196.216 69.3308 157.432 69.3308 157.432H95.3283Z" fill="black"/>
<path d="M62.2045 115.407C59.3433 116.087 56.597 126.489 56.597 126.489L67.7854 133.96C67.7854 133.96 71.512 125.73 70.205 122.127C68.8539 118.374 65.7985 114.55 62.2045 115.407Z" fill="#4CAF4F"/>
<path opacity="0.2" d="M64.3945 122.109L63.6174 131.178L67.7766 133.969C68.925 131.383 69.7753 128.675 70.311 125.897L64.3945 122.109Z" fill="black"/>
<path d="M98.6398 115.61C98.6398 115.61 101.942 116.766 95.3283 157.423H67.1938C67.6706 145.943 67.6795 138.878 62.2045 115.407C66.1439 114.595 70.137 114.069 74.1524 113.835C78.4062 113.53 82.6764 113.53 86.9303 113.835C92.423 114.338 98.6398 115.61 98.6398 115.61Z" fill="#4CAF4F"/>
<path d="M101.501 122.109C102.137 123.875 102.808 125.774 103.514 127.602C104.221 129.43 104.892 131.311 105.607 133.165L107.771 138.711L108.318 140.097L108.601 140.786L108.733 141.13C108.733 141.192 108.733 141.192 108.733 141.183C108.572 140.956 108.36 140.768 108.115 140.636C107.766 140.43 107.372 140.312 106.967 140.291C106.631 140.281 106.296 140.344 105.987 140.477C105.581 140.662 105.581 140.742 105.589 140.733C105.663 140.674 105.728 140.606 105.784 140.53C106.273 139.888 106.696 139.199 107.047 138.472C107.462 137.66 107.859 136.794 108.256 135.92C109.033 134.154 109.749 132.326 110.464 130.48C111.179 128.635 111.859 126.772 112.522 124.891L114.535 119.257L117.935 120.14C117.264 124.167 116.398 128.087 115.356 132.079C114.853 134.066 114.261 136.035 113.59 138.022C113.254 139.02 112.884 140.009 112.46 141.024C112.018 142.126 111.474 143.185 110.835 144.186C110.6 144.523 110.34 144.841 110.058 145.139C109.607 145.626 109.06 146.014 108.451 146.279C107.91 146.51 107.325 146.619 106.737 146.596C106.079 146.572 105.438 146.38 104.874 146.04C104.209 145.625 103.657 145.052 103.267 144.371C103.135 144.142 103.02 143.912 102.94 143.744L102.772 143.409L102.437 142.72L101.766 141.351C100.883 139.514 99.9997 137.66 99.2314 135.797C98.4631 133.933 97.6507 132.044 96.8913 130.145C96.1319 128.246 95.4519 126.348 94.8073 124.299L101.501 122.109Z" fill="#E58A7B"/>
<path d="M98.6398 115.61C102.022 116.413 105.828 126.41 105.828 126.41L95.7698 134.966C95.7698 134.966 89.2616 124.069 90.5774 120.475C91.9461 116.731 94.2244 114.559 98.6398 115.61Z" fill="#4CAF4F"/>
<path d="M116.133 116.095L119.666 113.146L122.121 116.97L120.31 120.157C120.31 120.157 117.431 122.807 114.888 121.456C114.485 120.548 114.388 119.534 114.612 118.567C114.837 117.6 115.371 116.732 116.133 116.095Z" fill="#E58A7B"/>
<path d="M126.041 113.155L125.776 114.117L120.187 115.053L119.639 113.146L126.041 113.155Z" fill="#E58A7B"/>
<path d="M94.4099 266.093L84.3253 259.576L86.1355 256.432L97.4653 263.4L94.4099 266.093Z" fill="#4CAF4F"/>
<path d="M77.2784 271.285C76.3936 271.177 75.5434 270.876 74.7882 270.402C74.757 270.391 74.73 270.371 74.7109 270.344C74.6917 270.317 74.6815 270.285 74.6815 270.252C74.6815 270.219 74.6917 270.187 74.7109 270.16C74.73 270.133 74.757 270.113 74.7882 270.102C75.0619 270.014 77.4374 269.281 78.1262 269.846C78.2036 269.91 78.2624 269.994 78.2966 270.089C78.3307 270.184 78.339 270.286 78.3204 270.385C78.3082 270.544 78.2555 270.697 78.1674 270.83C78.0793 270.963 77.9587 271.071 77.8171 271.144C77.6517 271.234 77.4668 271.283 77.2784 271.285ZM75.2915 270.314C76.3953 270.879 77.2784 271.082 77.7023 270.87C77.7946 270.819 77.8723 270.745 77.9279 270.656C77.9835 270.566 78.0153 270.464 78.0202 270.358C78.0202 270.217 78.0202 270.155 77.9407 270.12C77.5698 269.819 76.2452 270.049 75.2739 270.314H75.2915Z" fill="#263238"/>
<path d="M74.85 270.464C74.8034 270.463 74.7589 270.444 74.7263 270.411C74.7132 270.387 74.7063 270.359 74.7063 270.332C74.7063 270.304 74.7132 270.277 74.7263 270.252C74.7263 270.173 75.3003 268.256 76.201 267.824C76.3161 267.771 76.4411 267.744 76.5675 267.744C76.694 267.744 76.8189 267.771 76.934 267.824C77.058 267.863 77.1653 267.942 77.239 268.05C77.3126 268.157 77.3482 268.286 77.3402 268.415C77.2784 269.21 75.6624 270.305 74.9206 270.491L74.85 270.464ZM76.5631 268.053C76.4772 268.056 76.3929 268.077 76.3158 268.115C75.7683 268.38 75.318 269.413 75.0972 270.04C75.8743 269.713 76.9428 268.848 76.9781 268.362C76.9781 268.283 76.9781 268.186 76.775 268.097C76.709 268.062 76.6373 268.038 76.5631 268.027V268.053Z" fill="#263238"/>
<path d="M89.8797 275.1C88.8819 275.1 87.4955 273.82 86.736 273.034C86.7166 273.007 86.7062 272.974 86.7062 272.941C86.7062 272.908 86.7166 272.875 86.736 272.848C86.7535 272.82 86.7782 272.797 86.8078 272.781C86.8373 272.766 86.8705 272.758 86.9038 272.76C87.257 272.76 90.3213 273.219 90.754 274.085C90.7998 274.162 90.824 274.251 90.824 274.341C90.824 274.431 90.7998 274.519 90.754 274.597C90.6891 274.732 90.591 274.848 90.469 274.934C90.347 275.021 90.205 275.075 90.0563 275.091L89.8797 275.1ZM87.3188 273.157C88.4315 274.235 89.4117 274.835 89.968 274.765C90.0655 274.752 90.1583 274.715 90.2383 274.658C90.3184 274.602 90.3833 274.526 90.4272 274.438C90.447 274.408 90.4575 274.372 90.4575 274.336C90.4575 274.3 90.447 274.265 90.4272 274.235C90.1976 273.758 88.564 273.352 87.3188 273.157Z" fill="#263238"/>
<path d="M87.416 273.113C87.2178 273.119 87.0195 273.104 86.8244 273.069C86.7971 273.065 86.7714 273.054 86.7497 273.037C86.728 273.02 86.7111 272.997 86.7007 272.972C86.6875 272.946 86.6807 272.917 86.6807 272.888C86.6807 272.859 86.6875 272.83 86.7007 272.804C86.7537 272.742 87.9459 271.303 89.0762 271.206C89.3962 271.181 89.7132 271.282 89.9592 271.488C90.3036 271.789 90.286 272.054 90.1977 272.221C89.9769 272.822 88.4492 273.113 87.416 273.113ZM87.1864 272.787C88.1755 272.84 89.7561 272.513 89.9592 272.08C89.9592 272.08 90.0299 271.939 89.8003 271.745C89.7089 271.665 89.6022 271.605 89.4867 271.569C89.3713 271.532 89.2496 271.52 89.1292 271.533C88.3677 271.745 87.6897 272.186 87.1864 272.795V272.787Z" fill="#263238"/>
<path d="M75.0884 269.51L67.6 267.391C67.4709 267.352 67.332 267.362 67.2098 267.419C67.0875 267.476 66.9907 267.576 66.9377 267.7L64.4122 273.378C64.3528 273.524 64.325 273.68 64.3304 273.837C64.3359 273.994 64.3745 274.148 64.4437 274.289C64.513 274.43 64.6112 274.555 64.7321 274.655C64.853 274.755 64.9938 274.829 65.1451 274.871C67.7943 275.559 69.0659 275.754 72.3597 276.699C74.3908 277.264 77.2872 278.315 80.0866 279.109C82.8859 279.904 83.8219 277.175 82.7358 276.593C77.8259 273.996 77.4374 272.177 76.0951 270.234C75.8547 269.883 75.4984 269.626 75.0884 269.51Z" fill="#4CAF4F"/>
<path d="M86.9391 272.001L80.5457 267.585C80.4373 267.506 80.3037 267.47 80.1703 267.483C80.0368 267.496 79.9127 267.558 79.8216 267.656L75.5829 272.213C75.4796 272.33 75.4026 272.469 75.3569 272.619C75.3112 272.768 75.298 272.926 75.318 273.082C75.3381 273.237 75.391 273.386 75.4732 273.52C75.5554 273.653 75.6651 273.767 75.7949 273.855C78.0467 275.365 79.2123 275.974 82.0293 277.926C83.7954 279.127 87.2129 281.794 89.5972 283.454C91.9814 285.114 93.7564 282.836 92.9087 281.935C89.1115 277.882 88.2814 275.339 87.6544 273.034C87.5456 272.616 87.2922 272.25 86.9391 272.001Z" fill="#4CAF4F"/>
<path d="M81.7556 263.788L70.2316 258.057L71.4237 254.931L83.7336 260.971L81.7556 263.788Z" fill="#4CAF4F"/>
<path d="M66.7699 155.771L65.7985 158.315C65.7014 158.509 65.931 158.712 66.2577 158.712H95.4696C95.7256 158.712 95.9376 158.588 95.9552 158.43L96.2025 155.904C96.2025 155.736 95.9994 155.586 95.7256 155.586H67.2291C67.1433 155.578 67.0568 155.591 66.9769 155.623C66.897 155.655 66.826 155.706 66.7699 155.771Z" fill="#4CAF4F"/>
<path opacity="0.4" d="M66.7699 155.771L65.7985 158.315C65.7014 158.509 65.931 158.712 66.2577 158.712H95.4696C95.7256 158.712 95.9376 158.588 95.9552 158.43L96.2025 155.904C96.2025 155.736 95.9994 155.586 95.7256 155.586H67.2291C67.1433 155.578 67.0568 155.591 66.9769 155.623C66.897 155.655 66.826 155.706 66.7699 155.771Z" fill="white"/>
<path d="M71.3707 158.959H70.6025C70.4523 158.959 70.3375 158.88 70.3464 158.783L70.7084 155.507C70.7084 155.418 70.8497 155.339 70.9998 155.339H71.7681C71.9182 155.339 72.033 155.418 72.0242 155.507L71.6621 158.783C71.6533 158.88 71.5208 158.959 71.3707 158.959Z" fill="#4CAF4F"/>
<path d="M89.3853 158.959H88.6258C88.4757 158.959 88.3609 158.88 88.3697 158.783L88.723 155.507C88.723 155.418 88.8731 155.339 89.0232 155.339H89.7827C89.9328 155.339 90.0564 155.418 90.0387 155.507L89.6855 158.783C89.6414 158.88 89.5442 158.959 89.3853 158.959Z" fill="#4CAF4F"/>
<g style="mix-blend-mode:multiply">
<path d="M70.6996 308.507C83.7652 308.507 94.3569 307.74 94.3569 306.793C94.3569 305.847 83.7652 305.08 70.6996 305.08C57.634 305.08 47.0422 305.847 47.0422 306.793C47.0422 307.74 57.634 308.507 70.6996 308.507Z" fill="#F5F5F5"/>
</g>
<path d="M85.1112 304.374C80.9255 303.155 76.2805 301.592 73.4724 299.958C73.3929 299.905 73.3046 299.879 73.2251 299.835V280.884H81.6937C82.3366 280.846 82.9406 280.564 83.3823 280.095C83.824 279.627 84.07 279.007 84.07 278.363C84.07 277.719 83.824 277.099 83.3823 276.631C82.9406 276.162 82.3366 275.88 81.6937 275.842H73.2693V189.46H68.1828V275.842H59.7672C59.4236 275.822 59.0794 275.872 58.7558 275.989C58.4323 276.107 58.1362 276.289 57.8857 276.525C57.6352 276.761 57.4356 277.046 57.2992 277.362C57.1627 277.678 57.0924 278.019 57.0924 278.363C57.0924 278.707 57.1627 279.048 57.2992 279.364C57.4356 279.68 57.6352 279.965 57.8857 280.201C58.1362 280.437 58.4323 280.619 58.7558 280.737C59.0794 280.854 59.4236 280.905 59.7672 280.884H68.1828V299.808C68.1033 299.808 68.0239 299.879 67.9444 299.932C65.0921 301.592 60.4825 303.155 56.2968 304.347C56.014 304.433 55.7712 304.617 55.6123 304.866C55.4534 305.115 55.389 305.412 55.4306 305.705C55.4722 305.997 55.6172 306.265 55.8393 306.46C56.0613 306.655 56.3458 306.764 56.6411 306.767H84.7668C85.0491 306.748 85.3162 306.632 85.5236 306.44C85.731 306.247 85.8661 305.99 85.9064 305.71C85.9467 305.43 85.8898 305.144 85.745 304.901C85.6003 304.658 85.3766 304.472 85.1112 304.374Z" fill="#E0E0E0"/>
<path d="M86.4093 180.665H55.0075C52.4812 180.665 50.4332 182.713 50.4332 185.239V194.573C50.4332 197.1 52.4812 199.148 55.0075 199.148H86.4093C88.9356 199.148 90.9836 197.1 90.9836 194.573V185.239C90.9836 182.713 88.9356 180.665 86.4093 180.665Z" fill="#4CAF4F"/>
<path d="M54.7161 199.156V200.764C54.7161 202.088 56.1555 203.166 57.9216 203.166H83.5305C85.2966 203.166 86.736 202.088 86.736 200.764V199.156H54.7161Z" fill="#4CAF4F"/>
<path opacity="0.3" d="M54.7161 199.156V200.764C54.7161 202.088 56.1555 203.166 57.9216 203.166H83.5305C85.2966 203.166 86.736 202.088 86.736 200.764V199.156H54.7161Z" fill="white"/>
</svg>
